<svg width="48" height="48" viewBox="0 0 48 48" fill="none" xmlns="http://www.w3.org/2000/svg">
<circle cx="24" cy="24" r="24" fill="#171717"/>
<path d="M31.9082 22.0297H16.4061C16.3103 22.0311 16.2157 22.0512 16.1278 22.0889C16.0398 22.1266 15.9602 22.1811 15.8934 22.2495C15.8267 22.3178 15.7742 22.3985 15.7388 22.487C15.7035 22.5755 15.6861 22.6701 15.6876 22.7653C15.6862 22.8605 15.7037 22.9549 15.7391 23.0434C15.7745 23.1318 15.827 23.2124 15.8938 23.2806C15.9605 23.3488 16.0401 23.4033 16.128 23.441C16.2159 23.4786 16.3104 23.4987 16.4061 23.5H33.6545C34.2974 23.5 34.6169 22.704 34.16 22.2424L29.1901 17.2121C29.124 17.1445 29.0448 17.0909 28.9574 17.0545C28.8699 17.018 28.7759 16.9995 28.6811 17C28.5862 17.0005 28.4925 17.0201 28.4054 17.0575C28.3184 17.0949 28.2398 17.1494 28.1745 17.2177C28.0406 17.3583 27.9664 17.5447 27.9672 17.7383C27.9681 17.9319 28.044 18.1176 28.1791 18.257L31.9082 22.0297Z" fill="#FF4F28"/>
<rect x="13.25" y="22.2812" width="1.21875" height="1.21875" fill="#FF4F28"/>
<rect x="11.625" y="22.6875" width="0.8125" height="0.8125" fill="#FF4F28"/>
<rect x="10" y="23.0938" width="0.40625" height="0.40625" fill="#FF4F28"/>
<path d="M13.7273 27H13.1989C13.1676 26.848 13.1129 26.7145 13.0348 26.5994C12.9581 26.4844 12.8643 26.3878 12.7536 26.3097C12.6442 26.2301 12.5227 26.1705 12.3892 26.1307C12.2557 26.0909 12.1165 26.071 11.9716 26.071C11.7074 26.071 11.468 26.1378 11.2536 26.2713C11.0405 26.4048 10.8707 26.6016 10.7443 26.8615C10.6193 27.1214 10.5568 27.4403 10.5568 27.8182C10.5568 28.196 10.6193 28.5149 10.7443 28.7749C10.8707 29.0348 11.0405 29.2315 11.2536 29.3651C11.468 29.4986 11.7074 29.5653 11.9716 29.5653C12.1165 29.5653 12.2557 29.5455 12.3892 29.5057C12.5227 29.4659 12.6442 29.407 12.7536 29.3288C12.8643 29.2493 12.9581 29.152 13.0348 29.0369C13.1129 28.9205 13.1676 28.7869 13.1989 28.6364H13.7273C13.6875 28.8594 13.6151 29.0589 13.5099 29.2351C13.4048 29.4112 13.2741 29.5611 13.1179 29.6847C12.9616 29.8068 12.7862 29.8999 12.5916 29.9638C12.3984 30.0277 12.1918 30.0597 11.9716 30.0597C11.5994 30.0597 11.2685 29.9688 10.9787 29.7869C10.6889 29.6051 10.4609 29.3466 10.2947 29.0114C10.1286 28.6761 10.0455 28.2784 10.0455 27.8182C10.0455 27.358 10.1286 26.9602 10.2947 26.625C10.4609 26.2898 10.6889 26.0312 10.9787 25.8494C11.2685 25.6676 11.5994 25.5767 11.9716 25.5767C12.1918 25.5767 12.3984 25.6087 12.5916 25.6726C12.7862 25.7365 12.9616 25.8303 13.1179 25.9538C13.2741 26.076 13.4048 26.2251 13.5099 26.4013C13.6151 26.576 13.6875 26.7756 13.7273 27ZM15.476 30.0767C15.2686 30.0767 15.0804 30.0376 14.9114 29.9595C14.7424 29.88 14.6081 29.7656 14.5087 29.6165C14.4093 29.4659 14.3596 29.2841 14.3596 29.071C14.3596 28.8835 14.3965 28.7315 14.4703 28.6151C14.5442 28.4972 14.6429 28.4048 14.7665 28.3381C14.8901 28.2713 15.0265 28.2216 15.1756 28.1889C15.3262 28.1548 15.4775 28.1278 15.6294 28.108C15.8283 28.0824 15.9895 28.0632 16.1131 28.0504C16.2381 28.0362 16.329 28.0128 16.3858 27.9801C16.4441 27.9474 16.4732 27.8906 16.4732 27.8097V27.7926C16.4732 27.5824 16.4157 27.419 16.3006 27.3026C16.187 27.1861 16.0144 27.1278 15.7828 27.1278C15.5428 27.1278 15.3546 27.1804 15.2182 27.2855C15.0819 27.3906 14.986 27.5028 14.9306 27.6222L14.4533 27.4517C14.5385 27.2528 14.6522 27.098 14.7942 26.9872C14.9377 26.875 15.0939 26.7969 15.263 26.7528C15.4334 26.7074 15.601 26.6847 15.7658 26.6847C15.8709 26.6847 15.9917 26.6974 16.128 26.723C16.2658 26.7472 16.3986 26.7976 16.5265 26.8743C16.6557 26.951 16.763 27.0668 16.8482 27.2216C16.9334 27.3764 16.976 27.5838 16.976 27.8438V30H16.4732V29.5568H16.4476C16.4135 29.6278 16.3567 29.7038 16.2772 29.7848C16.1976 29.8658 16.0918 29.9347 15.9597 29.9915C15.8276 30.0483 15.6664 30.0767 15.476 30.0767ZM15.5527 29.625C15.7516 29.625 15.9192 29.5859 16.0556 29.5078C16.1934 29.4297 16.2971 29.3288 16.3667 29.2053C16.4377 29.0817 16.4732 28.9517 16.4732 28.8153V28.3551C16.4519 28.3807 16.405 28.4041 16.3326 28.4254C16.2615 28.4453 16.1792 28.4631 16.0854 28.4787C15.9931 28.4929 15.9029 28.5057 15.8148 28.517C15.7282 28.527 15.6578 28.5355 15.6039 28.5426C15.4732 28.5597 15.351 28.5874 15.2374 28.6257C15.1252 28.6626 15.0343 28.7187 14.9647 28.794C14.8965 28.8679 14.8624 28.9687 14.8624 29.0966C14.8624 29.2713 14.927 29.4034 15.0563 29.4929C15.187 29.581 15.3525 29.625 15.5527 29.625ZM19.3171 26.7273V27.1534H17.6211V26.7273H19.3171ZM18.1154 25.9432H18.6183V29.0625C18.6183 29.2045 18.6388 29.3111 18.68 29.3821C18.7227 29.4517 18.7766 29.4986 18.842 29.5227C18.9087 29.5455 18.979 29.5568 19.0529 29.5568C19.1083 29.5568 19.1538 29.554 19.1893 29.5483C19.2248 29.5412 19.2532 29.5355 19.2745 29.5312L19.3768 29.983C19.3427 29.9957 19.2951 30.0085 19.234 30.0213C19.1729 30.0355 19.0955 30.0426 19.0018 30.0426C18.8597 30.0426 18.7205 30.0121 18.5842 29.951C18.4492 29.8899 18.337 29.7969 18.2475 29.6719C18.1594 29.5469 18.1154 29.3892 18.1154 29.1989V25.9432ZM21.4105 30.0682C21.0952 30.0682 20.8232 29.9986 20.5945 29.8594C20.3672 29.7188 20.1918 29.5227 20.0682 29.2713C19.946 29.0185 19.8849 28.7244 19.8849 28.3892C19.8849 28.054 19.946 27.7585 20.0682 27.5028C20.1918 27.2457 20.3636 27.0455 20.5838 26.902C20.8054 26.7571 21.0639 26.6847 21.3594 26.6847C21.5298 26.6847 21.6982 26.7131 21.8643 26.7699C22.0305 26.8267 22.1818 26.919 22.3182 27.0469C22.4545 27.1733 22.5632 27.3409 22.6442 27.5497C22.7251 27.7585 22.7656 28.0156 22.7656 28.321V28.5341H20.2429V28.0994H22.2543C22.2543 27.9148 22.2173 27.75 22.1435 27.6051C22.071 27.4602 21.9673 27.3459 21.8324 27.2621C21.6989 27.1783 21.5412 27.1364 21.3594 27.1364C21.1591 27.1364 20.9858 27.1861 20.8395 27.2855C20.6946 27.3835 20.5831 27.5114 20.505 27.669C20.4268 27.8267 20.3878 27.9957 20.3878 28.1761V28.4659C20.3878 28.7131 20.4304 28.9226 20.5156 29.0945C20.6023 29.2649 20.7223 29.3949 20.8757 29.4844C21.0291 29.5724 21.2074 29.6165 21.4105 29.6165C21.5426 29.6165 21.6619 29.598 21.7685 29.5611C21.8764 29.5227 21.9695 29.4659 22.0476 29.3906C22.1257 29.3139 22.1861 29.2187 22.2287 29.1051L22.7145 29.2415C22.6634 29.4062 22.5774 29.5511 22.4567 29.6761C22.3359 29.7997 22.1868 29.8963 22.0092 29.9659C21.8317 30.0341 21.6321 30.0682 21.4105 30.0682ZM24.8516 31.2955C24.6087 31.2955 24.3999 31.2642 24.2251 31.2017C24.0504 31.1406 23.9048 31.0597 23.7884 30.9588C23.6733 30.8594 23.5817 30.7528 23.5135 30.6392L23.9141 30.358C23.9595 30.4176 24.017 30.4858 24.0866 30.5625C24.1563 30.6406 24.2514 30.7081 24.3722 30.7649C24.4943 30.8232 24.6541 30.8523 24.8516 30.8523C25.1158 30.8523 25.3338 30.7884 25.5057 30.6605C25.6776 30.5327 25.7635 30.3324 25.7635 30.0597V29.3949H25.7209C25.6839 29.4545 25.6314 29.5284 25.5632 29.6165C25.4964 29.7031 25.3999 29.7805 25.2734 29.8487C25.1484 29.9155 24.9794 29.9489 24.7663 29.9489C24.5021 29.9489 24.2649 29.8864 24.0547 29.7614C23.8459 29.6364 23.6804 29.4545 23.5582 29.2159C23.4375 28.9773 23.3771 28.6875 23.3771 28.3466C23.3771 28.0114 23.4361 27.7195 23.554 27.4709C23.6719 27.2209 23.8359 27.0277 24.0462 26.8913C24.2564 26.7536 24.4993 26.6847 24.7749 26.6847C24.9879 26.6847 25.157 26.7202 25.282 26.7912C25.4084 26.8608 25.505 26.9403 25.5717 27.0298C25.6399 27.1179 25.6925 27.1903 25.7294 27.2472H25.7805V26.7273H26.2663V30.0938C26.2663 30.375 26.2024 30.6037 26.0746 30.7798C25.9482 30.9574 25.7777 31.0874 25.5632 31.1697C25.3501 31.2536 25.1129 31.2955 24.8516 31.2955ZM24.8345 29.4972C25.0362 29.4972 25.2067 29.451 25.3459 29.3587C25.4851 29.2663 25.5909 29.1335 25.6634 28.9602C25.7358 28.7869 25.772 28.5795 25.772 28.3381C25.772 28.1023 25.7365 27.8942 25.6655 27.7138C25.5945 27.5334 25.4893 27.392 25.3501 27.2898C25.2109 27.1875 25.0391 27.1364 24.8345 27.1364C24.6214 27.1364 24.4439 27.1903 24.3018 27.2983C24.1612 27.4062 24.0554 27.5511 23.9844 27.733C23.9148 27.9148 23.88 28.1165 23.88 28.3381C23.88 28.5653 23.9155 28.7663 23.9865 28.9411C24.0589 29.1143 24.1655 29.2507 24.3061 29.3501C24.4482 29.4482 24.6243 29.4972 24.8345 29.4972ZM28.5163 30.0682C28.2209 30.0682 27.9616 29.9979 27.7386 29.8572C27.517 29.7166 27.3438 29.5199 27.2188 29.267C27.0952 29.0142 27.0334 28.7187 27.0334 28.3807C27.0334 28.0398 27.0952 27.7422 27.2188 27.4879C27.3438 27.2337 27.517 27.0362 27.7386 26.8956C27.9616 26.755 28.2209 26.6847 28.5163 26.6847C28.8118 26.6847 29.0703 26.755 29.2919 26.8956C29.5149 27.0362 29.6882 27.2337 29.8118 27.4879C29.9368 27.7422 29.9993 28.0398 29.9993 28.3807C29.9993 28.7187 29.9368 29.0142 29.8118 29.267C29.6882 29.5199 29.5149 29.7166 29.2919 29.8572C29.0703 29.9979 28.8118 30.0682 28.5163 30.0682ZM28.5163 29.6165C28.7408 29.6165 28.9254 29.5589 29.0703 29.4439C29.2152 29.3288 29.3224 29.1776 29.392 28.9901C29.4616 28.8026 29.4964 28.5994 29.4964 28.3807C29.4964 28.1619 29.4616 27.9581 29.392 27.7692C29.3224 27.5803 29.2152 27.4276 29.0703 27.3111C28.9254 27.1946 28.7408 27.1364 28.5163 27.1364C28.2919 27.1364 28.1072 27.1946 27.9624 27.3111C27.8175 27.4276 27.7102 27.5803 27.6406 27.7692C27.571 27.9581 27.5362 28.1619 27.5362 28.3807C27.5362 28.5994 27.571 28.8026 27.6406 28.9901C27.7102 29.1776 27.8175 29.3288 27.9624 29.4439C28.1072 29.5589 28.2919 29.6165 28.5163 29.6165ZM30.7669 30V26.7273H31.2527V27.2216H31.2868C31.3464 27.0597 31.4544 26.9283 31.6106 26.8274C31.7669 26.7266 31.943 26.6761 32.139 26.6761C32.176 26.6761 32.2221 26.6768 32.2775 26.6783C32.3329 26.6797 32.3748 26.6818 32.4032 26.6847V27.196C32.3862 27.1918 32.3471 27.1854 32.286 27.1768C32.2264 27.1669 32.1632 27.1619 32.0964 27.1619C31.9373 27.1619 31.7953 27.1953 31.6703 27.2621C31.5467 27.3274 31.4487 27.4183 31.3762 27.5348C31.3052 27.6499 31.2697 27.7812 31.2697 27.929V30H30.7669ZM33.4228 31.2273C33.3375 31.2273 33.2615 31.2202 33.1948 31.206C33.128 31.1932 33.0819 31.1804 33.0563 31.1676L33.1841 30.7244C33.3063 30.7557 33.4142 30.767 33.508 30.7585C33.6017 30.75 33.6848 30.7081 33.7573 30.6328C33.8311 30.5589 33.8986 30.4389 33.9597 30.2727L34.0534 30.017L32.8432 26.7273H33.3887L34.2921 29.3352H34.3262L35.2296 26.7273H35.775L34.3858 30.4773C34.3233 30.6463 34.2459 30.7862 34.1536 30.897C34.0613 31.0092 33.954 31.0923 33.8319 31.1463C33.7111 31.2003 33.5748 31.2273 33.4228 31.2273Z" fill="#FF4F28"/>
</svg>
