<svg width="48" height="48" viewBox="0 0 48 48" fill="none" xmlns="http://www.w3.org/2000/svg">
<circle cx="24" cy="24" r="24" transform="matrix(-1 0 0 1 48 0)" fill="#171717"/>
<path d="M14.0918 22.0297H29.5939C29.6897 22.0311 29.7843 22.0512 29.8722 22.0889C29.9602 22.1266 30.0398 22.1811 30.1066 22.2495C30.1733 22.3178 30.2258 22.3985 30.2612 22.487C30.2965 22.5755 30.3139 22.6701 30.3124 22.7653C30.3138 22.8605 30.2963 22.9549 30.2609 23.0434C30.2255 23.1318 30.173 23.2124 30.1062 23.2806C30.0395 23.3488 29.9599 23.4033 29.872 23.441C29.7841 23.4786 29.6896 23.4987 29.5939 23.5H12.3455C11.7026 23.5 11.3831 22.704 11.84 22.2424L16.8099 17.2121C16.876 17.1445 16.9552 17.0909 17.0426 17.0545C17.1301 17.018 17.2241 16.9995 17.3189 17C17.4138 17.0005 17.5075 17.0201 17.5946 17.0575C17.6816 17.0949 17.7602 17.1494 17.8255 17.2177C17.9594 17.3583 18.0336 17.5447 18.0328 17.7383C18.0319 17.9319 17.956 18.1176 17.8209 18.257L14.0918 22.0297Z" fill="#FF4F28"/>
<rect width="1.21875" height="1.21875" transform="matrix(-1 0 0 1 32.75 22.2812)" fill="#FF4F28"/>
<rect width="0.8125" height="0.8125" transform="matrix(-1 0 0 1 34.375 22.6875)" fill="#FF4F28"/>
<rect width="0.40625" height="0.40625" transform="matrix(-1 0 0 1 36 23.0938)" fill="#FF4F28"/>
<path d="M15.7273 27H15.1989C15.1676 26.848 15.1129 26.7145 15.0348 26.5994C14.9581 26.4844 14.8643 26.3878 14.7536 26.3097C14.6442 26.2301 14.5227 26.1705 14.3892 26.1307C14.2557 26.0909 14.1165 26.071 13.9716 26.071C13.7074 26.071 13.468 26.1378 13.2536 26.2713C13.0405 26.4048 12.8707 26.6016 12.7443 26.8615C12.6193 27.1214 12.5568 27.4403 12.5568 27.8182C12.5568 28.196 12.6193 28.5149 12.7443 28.7749C12.8707 29.0348 13.0405 29.2315 13.2536 29.3651C13.468 29.4986 13.7074 29.5653 13.9716 29.5653C14.1165 29.5653 14.2557 29.5455 14.3892 29.5057C14.5227 29.4659 14.6442 29.407 14.7536 29.3288C14.8643 29.2493 14.9581 29.152 15.0348 29.0369C15.1129 28.9205 15.1676 28.7869 15.1989 28.6364H15.7273C15.6875 28.8594 15.6151 29.0589 15.5099 29.2351C15.4048 29.4112 15.2741 29.5611 15.1179 29.6847C14.9616 29.8068 14.7862 29.8999 14.5916 29.9638C14.3984 30.0277 14.1918 30.0597 13.9716 30.0597C13.5994 30.0597 13.2685 29.9688 12.9787 29.7869C12.6889 29.6051 12.4609 29.3466 12.2947 29.0114C12.1286 28.6761 12.0455 28.2784 12.0455 27.8182C12.0455 27.358 12.1286 26.9602 12.2947 26.625C12.4609 26.2898 12.6889 26.0312 12.9787 25.8494C13.2685 25.6676 13.5994 25.5767 13.9716 25.5767C14.1918 25.5767 14.3984 25.6087 14.5916 25.6726C14.7862 25.7365 14.9616 25.8303 15.1179 25.9538C15.2741 26.076 15.4048 26.2251 15.5099 26.4013C15.6151 26.576 15.6875 26.7756 15.7273 27ZM17.476 30.0767C17.2686 30.0767 17.0804 30.0376 16.9114 29.9595C16.7424 29.88 16.6081 29.7656 16.5087 29.6165C16.4093 29.4659 16.3596 29.2841 16.3596 29.071C16.3596 28.8835 16.3965 28.7315 16.4703 28.6151C16.5442 28.4972 16.6429 28.4048 16.7665 28.3381C16.8901 28.2713 17.0265 28.2216 17.1756 28.1889C17.3262 28.1548 17.4775 28.1278 17.6294 28.108C17.8283 28.0824 17.9895 28.0632 18.1131 28.0504C18.2381 28.0362 18.329 28.0128 18.3858 27.9801C18.4441 27.9474 18.4732 27.8906 18.4732 27.8097V27.7926C18.4732 27.5824 18.4157 27.419 18.3006 27.3026C18.187 27.1861 18.0144 27.1278 17.7828 27.1278C17.5428 27.1278 17.3546 27.1804 17.2182 27.2855C17.0819 27.3906 16.986 27.5028 16.9306 27.6222L16.4533 27.4517C16.5385 27.2528 16.6522 27.098 16.7942 26.9872C16.9377 26.875 17.0939 26.7969 17.263 26.7528C17.4334 26.7074 17.601 26.6847 17.7658 26.6847C17.8709 26.6847 17.9917 26.6974 18.128 26.723C18.2658 26.7472 18.3986 26.7976 18.5265 26.8743C18.6557 26.951 18.763 27.0668 18.8482 27.2216C18.9334 27.3764 18.976 27.5838 18.976 27.8438V30H18.4732V29.5568H18.4476C18.4135 29.6278 18.3567 29.7038 18.2772 29.7848C18.1976 29.8658 18.0918 29.9347 17.9597 29.9915C17.8276 30.0483 17.6664 30.0767 17.476 30.0767ZM17.5527 29.625C17.7516 29.625 17.9192 29.5859 18.0556 29.5078C18.1934 29.4297 18.2971 29.3288 18.3667 29.2053C18.4377 29.0817 18.4732 28.9517 18.4732 28.8153V28.3551C18.4519 28.3807 18.405 28.4041 18.3326 28.4254C18.2615 28.4453 18.1792 28.4631 18.0854 28.4787C17.9931 28.4929 17.9029 28.5057 17.8148 28.517C17.7282 28.527 17.6578 28.5355 17.6039 28.5426C17.4732 28.5597 17.351 28.5874 17.2374 28.6257C17.1252 28.6626 17.0343 28.7187 16.9647 28.794C16.8965 28.8679 16.8624 28.9687 16.8624 29.0966C16.8624 29.2713 16.927 29.4034 17.0563 29.4929C17.187 29.581 17.3525 29.625 17.5527 29.625ZM21.3171 26.7273V27.1534H19.6211V26.7273H21.3171ZM20.1154 25.9432H20.6183V29.0625C20.6183 29.2045 20.6388 29.3111 20.68 29.3821C20.7227 29.4517 20.7766 29.4986 20.842 29.5227C20.9087 29.5455 20.979 29.5568 21.0529 29.5568C21.1083 29.5568 21.1538 29.554 21.1893 29.5483C21.2248 29.5412 21.2532 29.5355 21.2745 29.5312L21.3768 29.983C21.3427 29.9957 21.2951 30.0085 21.234 30.0213C21.1729 30.0355 21.0955 30.0426 21.0018 30.0426C20.8597 30.0426 20.7205 30.0121 20.5842 29.951C20.4492 29.8899 20.337 29.7969 20.2475 29.6719C20.1594 29.5469 20.1154 29.3892 20.1154 29.1989V25.9432ZM23.4105 30.0682C23.0952 30.0682 22.8232 29.9986 22.5945 29.8594C22.3672 29.7188 22.1918 29.5227 22.0682 29.2713C21.946 29.0185 21.8849 28.7244 21.8849 28.3892C21.8849 28.054 21.946 27.7585 22.0682 27.5028C22.1918 27.2457 22.3636 27.0455 22.5838 26.902C22.8054 26.7571 23.0639 26.6847 23.3594 26.6847C23.5298 26.6847 23.6982 26.7131 23.8643 26.7699C24.0305 26.8267 24.1818 26.919 24.3182 27.0469C24.4545 27.1733 24.5632 27.3409 24.6442 27.5497C24.7251 27.7585 24.7656 28.0156 24.7656 28.321V28.5341H22.2429V28.0994H24.2543C24.2543 27.9148 24.2173 27.75 24.1435 27.6051C24.071 27.4602 23.9673 27.3459 23.8324 27.2621C23.6989 27.1783 23.5412 27.1364 23.3594 27.1364C23.1591 27.1364 22.9858 27.1861 22.8395 27.2855C22.6946 27.3835 22.5831 27.5114 22.505 27.669C22.4268 27.8267 22.3878 27.9957 22.3878 28.1761V28.4659C22.3878 28.7131 22.4304 28.9226 22.5156 29.0945C22.6023 29.2649 22.7223 29.3949 22.8757 29.4844C23.0291 29.5724 23.2074 29.6165 23.4105 29.6165C23.5426 29.6165 23.6619 29.598 23.7685 29.5611C23.8764 29.5227 23.9695 29.4659 24.0476 29.3906C24.1257 29.3139 24.1861 29.2187 24.2287 29.1051L24.7145 29.2415C24.6634 29.4062 24.5774 29.5511 24.4567 29.6761C24.3359 29.7997 24.1868 29.8963 24.0092 29.9659C23.8317 30.0341 23.6321 30.0682 23.4105 30.0682ZM26.8516 31.2955C26.6087 31.2955 26.3999 31.2642 26.2251 31.2017C26.0504 31.1406 25.9048 31.0597 25.7884 30.9588C25.6733 30.8594 25.5817 30.7528 25.5135 30.6392L25.9141 30.358C25.9595 30.4176 26.017 30.4858 26.0866 30.5625C26.1563 30.6406 26.2514 30.7081 26.3722 30.7649C26.4943 30.8232 26.6541 30.8523 26.8516 30.8523C27.1158 30.8523 27.3338 30.7884 27.5057 30.6605C27.6776 30.5327 27.7635 30.3324 27.7635 30.0597V29.3949H27.7209C27.6839 29.4545 27.6314 29.5284 27.5632 29.6165C27.4964 29.7031 27.3999 29.7805 27.2734 29.8487C27.1484 29.9155 26.9794 29.9489 26.7663 29.9489C26.5021 29.9489 26.2649 29.8864 26.0547 29.7614C25.8459 29.6364 25.6804 29.4545 25.5582 29.2159C25.4375 28.9773 25.3771 28.6875 25.3771 28.3466C25.3771 28.0114 25.4361 27.7195 25.554 27.4709C25.6719 27.2209 25.8359 27.0277 26.0462 26.8913C26.2564 26.7536 26.4993 26.6847 26.7749 26.6847C26.9879 26.6847 27.157 26.7202 27.282 26.7912C27.4084 26.8608 27.505 26.9403 27.5717 27.0298C27.6399 27.1179 27.6925 27.1903 27.7294 27.2472H27.7805V26.7273H28.2663V30.0938C28.2663 30.375 28.2024 30.6037 28.0746 30.7798C27.9482 30.9574 27.7777 31.0874 27.5632 31.1697C27.3501 31.2536 27.1129 31.2955 26.8516 31.2955ZM26.8345 29.4972C27.0362 29.4972 27.2067 29.451 27.3459 29.3587C27.4851 29.2663 27.5909 29.1335 27.6634 28.9602C27.7358 28.7869 27.772 28.5795 27.772 28.3381C27.772 28.1023 27.7365 27.8942 27.6655 27.7138C27.5945 27.5334 27.4893 27.392 27.3501 27.2898C27.2109 27.1875 27.0391 27.1364 26.8345 27.1364C26.6214 27.1364 26.4439 27.1903 26.3018 27.2983C26.1612 27.4062 26.0554 27.5511 25.9844 27.733C25.9148 27.9148 25.88 28.1165 25.88 28.3381C25.88 28.5653 25.9155 28.7663 25.9865 28.9411C26.0589 29.1143 26.1655 29.2507 26.3061 29.3501C26.4482 29.4482 26.6243 29.4972 26.8345 29.4972ZM30.5163 30.0682C30.2209 30.0682 29.9616 29.9979 29.7386 29.8572C29.517 29.7166 29.3438 29.5199 29.2188 29.267C29.0952 29.0142 29.0334 28.7187 29.0334 28.3807C29.0334 28.0398 29.0952 27.7422 29.2188 27.4879C29.3438 27.2337 29.517 27.0362 29.7386 26.8956C29.9616 26.755 30.2209 26.6847 30.5163 26.6847C30.8118 26.6847 31.0703 26.755 31.2919 26.8956C31.5149 27.0362 31.6882 27.2337 31.8118 27.4879C31.9368 27.7422 31.9993 28.0398 31.9993 28.3807C31.9993 28.7187 31.9368 29.0142 31.8118 29.267C31.6882 29.5199 31.5149 29.7166 31.2919 29.8572C31.0703 29.9979 30.8118 30.0682 30.5163 30.0682ZM30.5163 29.6165C30.7408 29.6165 30.9254 29.5589 31.0703 29.4439C31.2152 29.3288 31.3224 29.1776 31.392 28.9901C31.4616 28.8026 31.4964 28.5994 31.4964 28.3807C31.4964 28.1619 31.4616 27.9581 31.392 27.7692C31.3224 27.5803 31.2152 27.4276 31.0703 27.3111C30.9254 27.1946 30.7408 27.1364 30.5163 27.1364C30.2919 27.1364 30.1072 27.1946 29.9624 27.3111C29.8175 27.4276 29.7102 27.5803 29.6406 27.7692C29.571 27.9581 29.5362 28.1619 29.5362 28.3807C29.5362 28.5994 29.571 28.8026 29.6406 28.9901C29.7102 29.1776 29.8175 29.3288 29.9624 29.4439C30.1072 29.5589 30.2919 29.6165 30.5163 29.6165ZM32.7669 30V26.7273H33.2527V27.2216H33.2868C33.3464 27.0597 33.4544 26.9283 33.6106 26.8274C33.7669 26.7266 33.943 26.6761 34.139 26.6761C34.176 26.6761 34.2221 26.6768 34.2775 26.6783C34.3329 26.6797 34.3748 26.6818 34.4032 26.6847V27.196C34.3862 27.1918 34.3471 27.1854 34.286 27.1768C34.2264 27.1669 34.1632 27.1619 34.0964 27.1619C33.9373 27.1619 33.7953 27.1953 33.6703 27.2621C33.5467 27.3274 33.4487 27.4183 33.3762 27.5348C33.3052 27.6499 33.2697 27.7812 33.2697 27.929V30H32.7669ZM35.4228 31.2273C35.3375 31.2273 35.2615 31.2202 35.1948 31.206C35.128 31.1932 35.0819 31.1804 35.0563 31.1676L35.1841 30.7244C35.3063 30.7557 35.4142 30.767 35.508 30.7585C35.6017 30.75 35.6848 30.7081 35.7573 30.6328C35.8311 30.5589 35.8986 30.4389 35.9597 30.2727L36.0534 30.017L34.8432 26.7273H35.3887L36.2921 29.3352H36.3262L37.2296 26.7273H37.775L36.3858 30.4773C36.3233 30.6463 36.2459 30.7862 36.1536 30.897C36.0613 31.0092 35.954 31.0923 35.8319 31.1463C35.7111 31.2003 35.5748 31.2273 35.4228 31.2273Z" fill="#FF4F28"/>
</svg>
